/* XPM */
static char *e2dfde7855d74813b450d0305928ece3DML0OfSetnweJcP0[] = {
/* columns rows colors chars-per-pixel */
"32 32 175 2 ",
"   c #AC1E05",
".  c #AB1E0A",
"X  c #B0180D",
"o  c #AD1716",
"O  c #AD1C17",
"+  c #AE1D18",
"@  c #B41D16",
"#  c #B71C1A",
"$  c #AC2105",
"%  c #AE210C",
"&  c #AF280A",
"*  c #B12404",
"=  c #B22B04",
"-  c #B4230D",
";  c #B9270E",
":  c #B4290C",
">  c #BA2C0C",
",  c #BD3602",
"<  c #BB340C",
"1  c #AE2513",
"2  c #AE201F",
"3  c #B42514",
"4  c #BA2515",
"5  c #B52A13",
"6  c #BB2C14",
"7  c #B4241C",
"8  c #BB241D",
"9  c #B52A1A",
"0  c #BA2B1B",
"q  c #BD3314",
"w  c #BD3815",
"e  c #B7321F",
"r  c #BB321C",
"t  c #BA1F22",
"y  c #BA1E2A",
"u  c #BA1E36",
"i  c #B42421",
"p  c #BC2523",
"a  c #B62B22",
"s  c #BC2B24",
"d  c #BB252B",
"f  c #BD2A2B",
"g  c #BC3223",
"h  c #BE312A",
"j  c #BD2633",
"k  c #BD2833",
"l  c #BD243A",
"z  c #BC293D",
"x  c #C3350D",
"c  c #C43C0C",
"v  c #C12C1E",
"b  c #C13514",
"n  c #C73E16",
"m  c #CA3F12",
"M  c #C1341A",
"N  c #C43918",
"B  c #CA3F1B",
"V  c #C02526",
"C  c #C12B24",
"Z  c #C2262C",
"A  c #C32A2C",
"S  c #C92C2E",
"D  c #C23223",
"F  c #CA3524",
"G  c #C53B21",
"H  c #CB3B25",
"J  c #C4332C",
"K  c #CB342C",
"L  c #C53928",
"P  c #CA392A",
"I  c #C22533",
"U  c #C32A32",
"Y  c #CA2E30",
"T  c #C1263A",
"R  c #C42A3A",
"E  c #CA2E3C",
"W  c #C43234",
"Q  c #CD3632",
"!  c #CB3F30",
"~  c #C5323C",
"^  c #CC3539",
"/  c #C54111",
"(  c #CD4415",
")  c #CE441B",
"_  c #D0431C",
"`  c #D34B1B",
"'  c #D7521A",
"]  c #CB4221",
"[  c #C8412E",
"{  c #D64D21",
"}  c #DA4F2E",
"|  c #D94F2C",
" . c #D65126",
".. c #DA5225",
"X. c #D6502A",
"o. c #DB512A",
"O. c #D64536",
"+. c #D24936",
"@. c #D94D35",
"#. c #DB463C",
"$. c #D54B3B",
"%. c #DD5434",
"&. c #DC5333",
"*. c #DD523E",
"=. c #E0512F",
"-. c #E35735",
";. c #E45834",
":. c #E95B35",
">. c #E4563C",
",. c #E75A3E",
"<. c #EF6A2F",
"1. c #EB613D",
"2. c #EF633E",
"3. c #F06730",
"4. c #F0613F",
"5. c #F1693A",
"6. c #F1693B",
"7. c #BD2B42",
"8. c #C93640",
"9. c #DF4F44",
"0. c #E25344",
"q. c #ED5F44",
"w. c #EC5E4A",
"e. c #ED5D52",
"r. c #EF6642",
"t. c #ED6245",
"y. c #ED6246",
"u. c #EC6145",
"i. c #EE624B",
"p. c #ED604C",
"a. c #ED604E",
"s. c #ED614A",
"d. c #F06642",
"f. c #F16647",
"g. c #F16445",
"h. c #F66D44",
"j. c #F96E43",
"k. c #F86D45",
"l. c #F2654B",
"z. c #F56C4B",
"x. c #F96D4C",
"c. c #F57043",
"v. c #F97141",
"b. c #FB7343",
"n. c #FF7640",
"m. c #FE7740",
"M. c #FE7642",
"N. c #FF7642",
"B. c #F97245",
"V. c #FB7246",
"C. c #FC7347",
"Z. c #FF7546",
"A. c #FE734A",
"S. c #FF7449",
"D. c #FF734D",
"F. c #FF744D",
"G. c #FE764C",
"H. c #FF794F",
"J. c #FF7C4E",
"K. c #EA6055",
"L. c #F76655",
"P. c #F66B52",
"I. c #F96C53",
"U. c #F7645A",
"Y. c #F86659",
"T. c #F76A59",
"R. c #FB6D5C",
"E. c #FF7350",
"W. c #FE7355",
"Q. c #FF7C52",
"!. c #FF7E54",
"~. c #FF7C52",
"^. c #FF745B",
"/. c #FF7366",
"(. c #FF8356",
/* pixels */
"7.z 7.z z k ~ f s s s s f f j k j k f f s s s s f W j z z z l l ",
"2 f f a i i a 9 5 5 5 5 0 8 p p a i 0 0 5 5 5 5 0 s i a d f A i ",
", 5.B.G.!.H.B.v.M.M.M.M.Z.S.D.E.E.G.S.Z.M.M.M.M.v.C.H.Q.A.j.5.c ",
", <.' ( ` ` ) { ( ( ( ( _ _ _ _ ) ) ) ( ( ( ( ( { ) _ ( m ` 3., ",
"w r.q . 1 7 O 7 s s s s s f d d s s s s s s s s 7 + 7 3 % M f.w ",
"> y.r h W ~ k k j j j j j j j j k k k f f k j j j z 8.^ J D s.5 ",
"n d.: 9 7 d k k k k k f f f f f s s s s f f k k j j d i 7 3 y.N ",
"< 1.6 P A U U j j j f f s s s 0 0 0 0 s s f f j T R U f J 0 y.b ",
"b y.0 f f R l T j R d Q 7 D % w.l.  D 0 J A d R T l T j f s a.M ",
"M y.0 A j R l T R d A 3 0 M G %.} ] b 5 4 7 U j T l T j A s a.M ",
"b y.0 C f U I I Y p P 6 -.h.Q.c.5.(.j.o.b D K p I j U f A 0 s.M ",
"b y.0 C V A Z A p v 4 > ;.2.../ c ..6.:.* F 4 p Z Z A f C 0 s.M ",
"b q.0 C Z A Z Z S Q 0 q x.-.< = = * %.E.6 F V Y Z Z A f C 0 s.M ",
"M w.0 C Z A Z Z p 8 8 5 ^.G 5 r r 5 q ^.F X V t Z Z A f C 0 s.M ",
"M w.0 C Z A Z Z Y p K O.T.9 0 g g g 4 Y.0.C K S Z Z A s C 0 s.M ",
"M y.0 C V A Z A A 8 K U.0.0 g g s s s 9.e.#.# A Z Z A s s 0 y.w ",
"b u.6 v C A Z A V @ #.w.*.r e e r g 0 0.L.K 8 C Z Z A s r 6 t.w ",
"w y.0 C s A Z A A K C 0.T.3 e e r r 9 T.O.K p S Z d A s s 0 s.w ",
"D e.s A j R I T y A o J /.g 9 r r 9 L /.8 8 p y I j I j f s K.g ",
"D e.s A I T T T E A K 0 R.*.1 5 : r >.T.C p ^ R T T T j k s e.g ",
"M w.0 A Z I I T d 8 K - ,.z.X.n n o.d.>.4 4 V p I I I j A s a.M ",
"b q.0 C Z U Z U V K D M =.k.(.5.j.J.j.;.6 H 8 S Z Z U Z C 0 y.b ",
"x 2.6 v C A Z Z p C 3 ; > b ) ..=.m b > - C 8 S Z Z A V v 6 2.b ",
"x 2.6 v V A I I U t A D 0 M   l.,.* M - K p Y d I j U s C 6 4.b ",
"b g.0 A d R R u T T I Z f f f f s s f f f j T T l R R d A 0 g.b ",
"q s.0 J f j l T T l T j j j k k k k k k j j l l T l j j W s l.6 ",
"q u.5 s f d d ~ j k k k k k k k k k k f k k k k R d d f s 0 y.b ",
"B f.q 3 g J s f s f s s f f f f f f f s s s s s f s J D 4 q l.B ",
"= %.w $ 5 6 - $ : : : : 5 5 4 4 4 4 5 : : : : : $ 3 6 5 $ q %.* ",
"] W.W.z.z.P.P.z.z.k.k.x.x.I.I.I.I.I.x.x.k.k.k.z.x.I.P.P.l.^.W.] ",
"1 [ $.$.+.+.&.&.X.X.X.| } @.@.@.@.@.} | X. .X.X.&.&.+.$.$.$.! 3 ",
"g 7 9 a a 1 5 : = = = = : : 5 5 5 : : = = = = = & 5 1 a s i a h "
};
