/* XPM */
static char *f7b804d9c60245aeb908671adbfc65bbyYwDt45CJqUK4vSi[] = {
/* columns rows colors chars-per-pixel */
"32 32 232 2 ",
"   c #41BFBE",
".  c #3BC3BF",
"X  c #3ECBCD",
"o  c #37C4C9",
"O  c #2DCCD2",
"+  c #35CED4",
"@  c #3DCBD2",
"#  c #37D2DC",
"$  c #3BD7D8",
"%  c #3EE0E3",
"&  c #42C4C7",
"*  c #48C7C0",
"=  c #4ECBC6",
"-  c #46C2CD",
";  c #43CCCE",
":  c #4BCFCC",
">  c #52C5C4",
",  c #5AC7CE",
"<  c #52CCCB",
"1  c #53C5CA",
"2  c #4BD2CB",
"3  c #40D1CC",
"4  c #55D1CD",
"5  c #5CD4CE",
"6  c #43CBD3",
"7  c #4CCCD3",
"8  c #4CCBD9",
"9  c #53CED2",
"0  c #59CFD4",
"q  c #5ECADA",
"w  c #57C9D6",
"e  c #45D5D3",
"r  c #4DD3D4",
"t  c #46D9D2",
"y  c #43D5DB",
"u  c #4BD4DA",
"i  c #43DCDB",
"p  c #4EDADC",
"a  c #53D4D4",
"s  c #5DD4D5",
"d  c #54D9D4",
"f  c #5DDBD4",
"g  c #54D4D9",
"h  c #53DADC",
"j  c #5DDADB",
"k  c #68CFCB",
"l  c #67CECD",
"z  c #69D4CC",
"x  c #63D0CA",
"c  c #73D2CE",
"v  c #62CAD2",
"b  c #6ECFD5",
"n  c #76CED8",
"m  c #63D6D5",
"M  c #6BD5D6",
"N  c #63DAD5",
"B  c #63D4DD",
"V  c #6DD6DA",
"C  c #63DCDD",
"Z  c #6CDDDC",
"A  c #74D3DC",
"S  c #7FD6DD",
"D  c #74DADD",
"F  c #7CDBDD",
"G  c #74D7D3",
"H  c #49E1DC",
"J  c #5EE3DE",
"K  c #50E1DC",
"L  c #62E2DC",
"P  c #6BE2DD",
"I  c #7AE4DD",
"U  c #76E5DF",
"Y  c #45DEE2",
"T  c #4DDDE3",
"R  c #4BD2E7",
"E  c #54DCE3",
"W  c #5CDCE1",
"Q  c #5ADAE8",
"!  c #72CAE0",
"~  c #66D6E1",
"^  c #62DDE3",
"/  c #6BDCE2",
"(  c #6DD5EB",
")  c #61DDEB",
"_  c #6CDAE8",
"`  c #73DCE2",
"'  c #7BDDE1",
"]  c #77DAEB",
"[  c #7CD7F2",
"{  c #4DE4E1",
"}  c #4CE9EC",
"|  c #46E4E7",
" . c #54E2E3",
".. c #5CE4E5",
"X. c #5DEBE6",
"o. c #5CE6EC",
"O. c #57EAE8",
"+. c #5EF0EF",
"@. c #58EBF4",
"#. c #5EF5F2",
"$. c #62E2E4",
"%. c #6CE4E3",
"&. c #66E8E0",
"*. c #6DEAE5",
"=. c #65E3EC",
"-. c #6CE5EB",
";. c #65EBEB",
":. c #6DEDEA",
">. c #73E5E4",
",. c #7CE4E4",
"<. c #73E9E4",
"1. c #73E5EA",
"2. c #7CE4EB",
"3. c #75ECEA",
"4. c #7AEDEB",
"5. c #7EEBE5",
"6. c #75F2EC",
"7. c #7BF5ED",
"8. c #77F9EF",
"9. c #7FF2E5",
"0. c #65E6F2",
"q. c #6DEEF2",
"w. c #64EAF3",
"e. c #73EEF2",
"r. c #7CEDF5",
"t. c #7CE4F8",
"y. c #6BF5F7",
"u. c #74F3F1",
"i. c #7CF4F2",
"p. c #77F6FD",
"a. c #78F3FB",
"s. c #7CFAFB",
"d. c #70F8F4",
"f. c #82D4DA",
"g. c #86D6DC",
"h. c #82E2DF",
"j. c #8CE5DF",
"k. c #91E2DC",
"l. c #83DDE4",
"z. c #8EDDE4",
"x. c #84DCEB",
"c. c #94DDE6",
"v. c #9ADEE7",
"b. c #95DBED",
"n. c #9BDFEC",
"m. c #8FDFF8",
"M. c #93DFF2",
"N. c #9CDEF3",
"B. c #A3DFEA",
"V. c #B5DFEB",
"C. c #A1DBF4",
"Z. c #A0DDF9",
"A. c #83E2E3",
"S. c #88E6E6",
"D. c #82EDE6",
"F. c #8BEFE7",
"G. c #81E4ED",
"H. c #8BE3EA",
"J. c #83EBED",
"K. c #8AEBED",
"L. c #92EAE5",
"P. c #93E5EE",
"I. c #9EE5EE",
"U. c #96EBEB",
"Y. c #89F3EC",
"T. c #82F3ED",
"R. c #9BF3ED",
"E. c #91F6EE",
"W. c #8CE3F4",
"Q. c #85ECF3",
"!. c #8DEDF3",
"~. c #8FE6FE",
"^. c #83ECFB",
"/. c #89EBFB",
"(. c #85E7F4",
"). c #94E4F3",
"_. c #9BE3F3",
"`. c #93EBF3",
"'. c #9CEBF4",
"]. c #95E4FC",
"[. c #9CE4FC",
"{. c #94ECFD",
"}. c #9DEAFC",
"|. c #83F3F4",
" X c #8BF3F3",
".X c #85FCF3",
"XX c #85F4F9",
"oX c #8AF4FA",
"OX c #84FDFD",
"+X c #8CFDFD",
"@X c #93F2F3",
"#X c #9DF3F6",
"$X c #94FFF7",
"%X c #93F3FC",
"&X c #9CF3FE",
"*X c #94FDFE",
"=X c #9CFEFE",
"-X c #9AFBF4",
";X c #A4E3ED",
":X c #A1EAEE",
">X c #A0F5EE",
",X c #B3F4EC",
"<X c #A4E5F5",
"1X c #A4EBF3",
"2X c #ADEAF5",
"3X c #A2E4FA",
"4X c #ABE5FA",
"5X c #A4EBFC",
"6X c #ACECFE",
"7X c #ACE6F1",
"8X c #B2EAF4",
"9X c #B4ECFC",
"0X c #B8EEF8",
"qX c #B2E4F9",
"wX c #A2F1F6",
"eX c #A4F3FC",
"rX c #ABF4FE",
"tX c #A3FEFE",
"yX c #ACFEFF",
"uX c #ABF3F2",
"iX c #B6F8F7",
"pX c #B3F3FE",
"aX c #BCF4FE",
"sX c #B3FEFF",
"dX c #B9FFFF",
"fX c #BCFFFF",
"gX c #B8EAEB",
"hX c #C3E8F1",
"jX c #C4F5FF",
"kX c #C8F4FF",
"lX c #C3FFFF",
"zX c #D1FFFF",
/* pixels */
"@.w eXdXQ.a.u 0.t.~.{.5XpX9X;XI.'.5X6XpX2X;XqXqX5XwXiXgXhXV.8X1X",
"y.6 G.*X-.W ; ^ _ ] ] W.c.1XrX'.P._.N.3X5XrX4X6X].).:X8XkXjXaXrX",
"} + p e $ X 1.tXh o./ ` tX'.x.{.yXb._.M.].m.[.[.}.5X[.<X4X9X9X9X",
"@ { #.O.H o r.*Xd p j oXyX!.q ( }.5X1X).! [ ~.].[.5X[.[.Z.Z.C.C.",
"OX+Xd.X.h u h q.< C s =XtX(.=.7 S dXzXuXG.w ~ /.{.].}.5X6X4X4X9X",
"2.V > < 7 OXT p *XXXs +XyXr.p & @XdX,XdX*Xr.W e.(.W.)._.3X3X6X6X",
"*XD K. XB +Xw.7 -.%...K .. .p a yXdXsX-X4.d. .E oXW.x.).).}.}.N.",
"J.J.tXJ.%.j g e.OXe.3 { i i e -.=XwXK.U f d.y T tX] v 2.G./.W.].",
"v 2.1.j 4 5 Z tXQ.OXp #.+.X p h :.s 0 j 6...y o a.a.X ..s , ( t.",
"^.r.-.9 = *XI yXQ.2.g ....;.q.r g $.-.$.s.a X r / C  .@ 4.|.8 R ",
"` B ~ 1.,.,.k ,.' 2.B 0 -.1.m 4.C =X=Xm %.6.  |.dXH.& g tXyXo.# ",
"%X%X%X%X&Xl.%X%X{.%X%X(./.!.A.@Xv |.sX>.: J M tXlXwX-.-.fXtXh + ",
"1X5X6X5X5XeX&X].5XN.5X&X).}.dXfXK.V 4.3.$ X `.fXyX@X_ ^ .X7.g o ",
"8X;X4X6X5XrX[.5X6X6X5X5X}._.iXlXtX X5.i.+ @ #XlXU.,.+Xg h 2 C C ",
";X<X5X].W.).3X3X5XrXpXpXsXyXsX>XR.F.Y.u.R Q tXk.z +Xo.@ 6 g *XyX",
"I._.[.].W.).b.N._.I.;XB.n.f.,.D.F.*XZ e.8 ) =XE.i.p.; 6 6 r 3. X",
"b.).].].M._._.N.b.<X<X5XrX{.f 2 ;...a q.a.< 5 8.X.; B +X$.h X  .",
"}.}.rXeX].rXsX5X5X6XrX_.5XsX*.K 6 y 6 0.*Xe.= 2 t 7 =X2.e. .Y % ",
"3XN.5XrX].W.'.'.`.H.'.fXwXtX$X7.$.s.- s.y...< =Xj 3.Q.Q.p.O.$ $ ",
"4X4XC.b.).).).K.V J.g.yX#Xc I T.j e.1 q =.- >.+X> =X*Xs.w.y } | ",
"aXaX9X9XaXsXtX=X X XM F '.S.P 2 r 9 ' tXyXM >.i.1 +XOX .Y $ | } ",
"aX0XaXjX2Xv.P.`.K.,.J.!.wXeX*X*.:.s yXsXR.tXm %.V / W T | @.# # ",
"1X:X7X2X5X}.eXrX5X6XwXyXpX:X:XL.z $XsXlXL.*XC < sX#X-.T 6 @ + O ",
"'.'.1XpXeXx.S '._._.1X:X;XpXfXsXG D.=XA.c  Xj s.dXj.d o.Q ) E @ ",
"U.z.rXyXtXQ.Z XX*XK.`.'.c.dXsXh.T.4 L > l M g OXsXtXJ ; %.yX1.s ",
"g.wXyX' J./ / %.i.Z oXl.P.yXh.J.+X/ i.Z @X=X=.u..X9.&.j Z  X=X+X",
"lXfXtXN 4 < oX1.d d +XD n yXQ.XX~ Q.lXsXtXJ.P ;.d.d ,.tX3.* .X*X",
"wXf.x 7.:.C =XZ a : u.%.A %X1.< / *XyXrX=Xm 3.:.t . A.yXi.d L N ",
"A D M oXi.m 4.Z +X6.u.N *X*XOXf D.yX4.= r d +XP L J 7..Xu.e.%.m ",
" XJ.' A J.J.J.J. X,.%.%.*XD m 5 I Y.<.$...r <.,.XX1.5 m 1.1.` Z ",
"K.H.P.z.`.`.P.H.S A.,.,.' ,.,.2.' b V ` 1.1.>.2.A x.H.l.A.F H.#X",
"tXyXrXwXeX'.rXrXeXeX@X%X*X%X&X&XtX%X&X%X!.*X*X%XeX5XrXrX#XtXwXrX"
};
